{
.appVersion = "1075";
copyright = "Copyright 2016 The Rounded M+ Project Authors.";
customParameters = (
{
name = vendorID;
value = "M+  ";
},
{
name = panose;
value = (
2,
11,
5,
2,
2,
2,
3,
2,
2,
7
);
},
{
name = unicodeRanges;
value = (
0,
1,
2,
3,
4,
5,
6,
7,
9,
11,
24,
29,
30,
31,
32,
33,
35,
36,
37,
38,
39,
40,
42,
43,
44,
45,
46,
47,
48,
49,
50,
54,
57,
59,
61,
62,
65,
68,
89
);
},
{
name = codePageRanges;
value = (
1252,
1250,
1251,
1253,
1254,
1255,
1257,
1258,
932,
950,
869,
866,
865,
863,
862,
861,
860,
857,
855,
852,
775,
737,
850,
437
);
},
{
name = glyphOrder;
value = (
.notdef,
space
);
}
);
date = "2015-05-28 17:09:00 +0000";
familyName = "Yaku Han RPs";
fontMaster = (
{
ascender = 860;
capHeight = 700;
customParameters = (
{
name = typoAscender;
value = 860;
},
{
name = typoDescender;
value = -140;
},
{
name = typoLineGap;
value = 90;
},
{
name = winAscent;
value = 1075;
},
{
name = winDescent;
value = 320;
},
{
name = hheaAscender;
value = 1075;
},
{
name = hheaDescender;
value = -320;
},
{
name = underlinePosition;
value = -150;
}
);
descender = -140;
id = "4BF2BF08-17D9-4819-AFFF-E16C099614A3";
weightValue = 400;
widthValue = 5;
xHeight = 500;
}
);
glyphs = (
{
glyphname = ellipsis;
lastChange = "2017-12-21 08:46:27 +0000";
layers = (
{
layerId = "4BF2BF08-17D9-4819-AFFF-E16C099614A3";
paths = (
{
closed = 1;
nodes = (
"875 313 OFFCURVE",
"880 324 OFFCURVE",
"880 337 CURVE SMOOTH",
"880 383 LINE SMOOTH",
"880 408 OFFCURVE",
"858 430 OFFCURVE",
"833 430 CURVE SMOOTH",
"808 430 OFFCURVE",
"786 408 OFFCURVE",
"786 383 CURVE SMOOTH",
"786 337 LINE SMOOTH",
"786 312 OFFCURVE",
"808 290 OFFCURVE",
"833 290 CURVE SMOOTH",
"846 290 OFFCURVE",
"857 295 OFFCURVE",
"866 304 CURVE SMOOTH"
);
},
{
closed = 1;
nodes = (
"543 313 OFFCURVE",
"547 324 OFFCURVE",
"547 337 CURVE SMOOTH",
"547 383 LINE SMOOTH",
"547 408 OFFCURVE",
"527 430 OFFCURVE",
"500 430 CURVE SMOOTH",
"473 430 OFFCURVE",
"453 408 OFFCURVE",
"453 383 CURVE SMOOTH",
"453 337 LINE SMOOTH",
"453 312 OFFCURVE",
"473 290 OFFCURVE",
"500 290 CURVE SMOOTH",
"513 290 OFFCURVE",
"525 295 OFFCURVE",
"534 304 CURVE SMOOTH"
);
},
{
closed = 1;
nodes = (
"209 313 OFFCURVE",
"214 324 OFFCURVE",
"214 337 CURVE SMOOTH",
"214 383 LINE SMOOTH",
"214 408 OFFCURVE",
"192 430 OFFCURVE",
"167 430 CURVE SMOOTH",
"142 430 OFFCURVE",
"120 408 OFFCURVE",
"120 383 CURVE SMOOTH",
"120 337 LINE SMOOTH",
"120 312 OFFCURVE",
"142 290 OFFCURVE",
"167 290 CURVE SMOOTH",
"180 290 OFFCURVE",
"191 295 OFFCURVE",
"200 304 CURVE SMOOTH"
);
}
);
vertWidth = 1000;
width = 1000;
}
);
note = ellipsis;
unicode = 2026;
},
{
glyphname = anglebracketleft;
lastChange = "2017-12-21 08:48:28 +0000";
layers = (
{
layerId = "4BF2BF08-17D9-4819-AFFF-E16C099614A3";
paths = (
{
closed = 1;
nodes = (
"451 -83 OFFCURVE",
"471 -95 OFFCURVE",
"498 -95 CURVE SMOOTH",
"515 -95 OFFCURVE",
"527 -75 OFFCURVE",
"518 -60 CURVE SMOOTH",
"270 353 LINE SMOOTH",
"267 358 OFFCURVE",
"267 362 OFFCURVE",
"270 367 CURVE SMOOTH",
"518 780 LINE SMOOTH",
"527 795 OFFCURVE",
"515 815 OFFCURVE",
"498 815 CURVE SMOOTH",
"471 815 OFFCURVE",
"451 803 OFFCURVE",
"437 780 CURVE SMOOTH",
"214 409 LINE SMOOTH",
"195 376 OFFCURVE",
"195 344 OFFCURVE",
"214 311 CURVE SMOOTH",
"437 -60 LINE SMOOTH"
);
}
);
vertWidth = 1000;
width = 551;
}
);
note = uni3008;
unicode = 3008;
},
{
glyphname = anglebracketright;
lastChange = "2017-12-21 08:48:41 +0000";
layers = (
{
layerId = "4BF2BF08-17D9-4819-AFFF-E16C099614A3";
paths = (
{
closed = 1;
nodes = (
"36 815 OFFCURVE",
"24 795 OFFCURVE",
"33 780 CURVE SMOOTH",
"281 367 LINE SMOOTH",
"284 362 OFFCURVE",
"284 358 OFFCURVE",
"281 353 CURVE SMOOTH",
"33 -60 LINE SMOOTH",
"24 -75 OFFCURVE",
"36 -95 OFFCURVE",
"53 -95 CURVE SMOOTH",
"80 -95 OFFCURVE",
"100 -83 OFFCURVE",
"114 -60 CURVE SMOOTH",
"337 311 LINE SMOOTH",
"356 344 OFFCURVE",
"356 376 OFFCURVE",
"337 409 CURVE SMOOTH",
"114 780 LINE SMOOTH",
"100 803 OFFCURVE",
"80 815 OFFCURVE",
"53 815 CURVE SMOOTH"
);
}
);
vertWidth = 1000;
width = 551;
}
);
note = uni3009;
unicode = 3009;
},
{
glyphname = blacklenticularbracketleft;
lastChange = "2017-12-21 08:48:28 +0000";
layers = (
{
layerId = "4BF2BF08-17D9-4819-AFFF-E16C099614A3";
paths = (
{
closed = 1;
nodes = (
"458 -95 OFFCURVE",
"469 -70 OFFCURVE",
"454 -54 CURVE SMOOTH",
"351 62 OFFCURVE",
"293 209 OFFCURVE",
"293 360 CURVE SMOOTH",
"293 511 OFFCURVE",
"351 658 OFFCURVE",
"454 774 CURVE SMOOTH",
"469 790 OFFCURVE",
"458 815 OFFCURVE",
"437 815 CURVE SMOOTH",
"257 815 LINE SMOOTH",
"226 815 OFFCURVE",
"200 789 OFFCURVE",
"200 758 CURVE SMOOTH",
"200 -38 LINE SMOOTH",
"200 -69 OFFCURVE",
"226 -95 OFFCURVE",
"257 -95 CURVE SMOOTH",
"437 -95 LINE SMOOTH"
);
}
);
vertWidth = 1000;
width = 491;
}
);
note = uni3010;
unicode = 3010;
},
{
glyphname = blacklenticularbracketright;
lastChange = "2017-12-21 08:48:41 +0000";
layers = (
{
layerId = "4BF2BF08-17D9-4819-AFFF-E16C099614A3";
paths = (
{
closed = 1;
nodes = (
"265 -95 OFFCURVE",
"291 -69 OFFCURVE",
"291 -38 CURVE SMOOTH",
"291 758 LINE SMOOTH",
"291 789 OFFCURVE",
"265 815 OFFCURVE",
"234 815 CURVE SMOOTH",
"54 815 LINE SMOOTH",
"33 815 OFFCURVE",
"22 790 OFFCURVE",
"37 774 CURVE SMOOTH",
"140 658 OFFCURVE",
"198 511 OFFCURVE",
"198 360 CURVE SMOOTH",
"198 209 OFFCURVE",
"140 62 OFFCURVE",
"37 -54 CURVE SMOOTH",
"22 -70 OFFCURVE",
"33 -95 OFFCURVE",
"54 -95 CURVE SMOOTH",
"234 -95 LINE SMOOTH"
);
}
);
vertWidth = 1000;
width = 491;
}
);
note = uni3011;
unicode = 3011;
},
{
glyphname = braceleft.full;
lastChange = "2017-12-21 08:48:28 +0000";
layers = (
{
layerId = "4BF2BF08-17D9-4819-AFFF-E16C099614A3";
paths = (
{
closed = 1;
nodes = (
"403 387 OFFCURVE",
"430 437 OFFCURVE",
"430 512 CURVE SMOOTH",
"430 645 LINE SMOOTH",
"430 736 OFFCURVE",
"455 755 OFFCURVE",
"527 755 CURVE SMOOTH",
"634 755 LINE SMOOTH",
"651 755 OFFCURVE",
"664 768 OFFCURVE",
"664 785 CURVE SMOOTH",
"664 802 OFFCURVE",
"651 815 OFFCURVE",
"634 815 CURVE SMOOTH",
"494 815 LINE SMOOTH",
"398 815 OFFCURVE",
"357 772 OFFCURVE",
"357 665 CURVE SMOOTH",
"357 515 LINE SMOOTH",
"357 433 OFFCURVE",
"329 392 OFFCURVE",
"274 392 CURVE SMOOTH",
"232 392 LINE SMOOTH",
"215 392 OFFCURVE",
"200 377 OFFCURVE",
"200 360 CURVE SMOOTH",
"200 341 OFFCURVE",
"213 328 OFFCURVE",
"232 328 CURVE SMOOTH",
"274 328 LINE SMOOTH",
"329 328 OFFCURVE",
"357 287 OFFCURVE",
"357 205 CURVE SMOOTH",
"357 55 LINE SMOOTH",
"357 -52 OFFCURVE",
"398 -95 OFFCURVE",
"494 -95 CURVE SMOOTH",
"634 -95 LINE SMOOTH",
"651 -95 OFFCURVE",
"664 -82 OFFCURVE",
"664 -65 CURVE SMOOTH",
"664 -48 OFFCURVE",
"651 -35 OFFCURVE",
"634 -35 CURVE SMOOTH",
"527 -35 LINE SMOOTH",
"455 -35 OFFCURVE",
"430 -16 OFFCURVE",
"430 75 CURVE SMOOTH",
"430 208 LINE SMOOTH",
"430 283 OFFCURVE",
"403 333 OFFCURVE",
"348 358 CURVE",
"347 358 OFFCURVE",
"347 359 OFFCURVE",
"347 360 CURVE SMOOTH",
"347 361 OFFCURVE",
"347 362 OFFCURVE",
"348 362 CURVE"
);
}
);
vertWidth = 1000;
width = 694;
}
);
note = uniFF5B;
unicode = FF5B;
},
{
glyphname = braceright.full;
lastChange = "2017-12-21 08:48:41 +0000";
layers = (
{
layerId = "4BF2BF08-17D9-4819-AFFF-E16C099614A3";
paths = (
{
closed = 1;
nodes = (
"291 333 OFFCURVE",
"264 283 OFFCURVE",
"264 208 CURVE SMOOTH",
"264 75 LINE SMOOTH",
"264 -16 OFFCURVE",
"239 -35 OFFCURVE",
"167 -35 CURVE SMOOTH",
"60 -35 LINE SMOOTH",
"43 -35 OFFCURVE",
"30 -48 OFFCURVE",
"30 -65 CURVE SMOOTH",
"30 -82 OFFCURVE",
"43 -95 OFFCURVE",
"60 -95 CURVE SMOOTH",
"200 -95 LINE SMOOTH",
"296 -95 OFFCURVE",
"337 -52 OFFCURVE",
"337 55 CURVE SMOOTH",
"337 205 LINE SMOOTH",
"337 287 OFFCURVE",
"365 328 OFFCURVE",
"420 328 CURVE SMOOTH",
"462 328 LINE SMOOTH",
"479 328 OFFCURVE",
"494 343 OFFCURVE",
"494 360 CURVE SMOOTH",
"494 377 OFFCURVE",
"479 392 OFFCURVE",
"462 392 CURVE SMOOTH",
"420 392 LINE SMOOTH",
"365 392 OFFCURVE",
"337 433 OFFCURVE",
"337 515 CURVE SMOOTH",
"337 665 LINE SMOOTH",
"337 772 OFFCURVE",
"296 815 OFFCURVE",
"200 815 CURVE SMOOTH",
"60 815 LINE SMOOTH",
"43 815 OFFCURVE",
"30 802 OFFCURVE",
"30 785 CURVE SMOOTH",
"30 768 OFFCURVE",
"43 755 OFFCURVE",
"60 755 CURVE SMOOTH",
"167 755 LINE SMOOTH",
"239 755 OFFCURVE",
"264 736 OFFCURVE",
"264 645 CURVE SMOOTH",
"264 512 LINE SMOOTH",
"264 437 OFFCURVE",
"291 387 OFFCURVE",
"346 362 CURVE",
"347 362 OFFCURVE",
"347 361 OFFCURVE",
"347 360 CURVE SMOOTH",
"347 359 OFFCURVE",
"347 358 OFFCURVE",
"346 358 CURVE"
);
}
);
vertWidth = 1000;
width = 694;
}
);
note = uniFF5D;
unicode = FF5D;
},
{
glyphname = cornerbracketleft;
lastChange = "2017-12-21 08:48:28 +0000";
layers = (
{
layerId = "4BF2BF08-17D9-4819-AFFF-E16C099614A3";
paths = (
{
closed = 1;
nodes = (
"270 85 OFFCURVE",
"273 93 OFFCURVE",
"273 103 CURVE SMOOTH",
"273 752 LINE SMOOTH",
"273 757 OFFCURVE",
"276 760 OFFCURVE",
"282 760 CURVE SMOOTH",
"552 760 LINE SMOOTH",
"569 760 OFFCURVE",
"583 775 OFFCURVE",
"583 792 CURVE SMOOTH",
"583 809 OFFCURVE",
"569 823 OFFCURVE",
"552 823 CURVE SMOOTH",
"257 823 LINE SMOOTH",
"226 823 OFFCURVE",
"200 798 OFFCURVE",
"200 767 CURVE SMOOTH",
"200 103 LINE SMOOTH",
"200 83 OFFCURVE",
"217 67 OFFCURVE",
"237 67 CURVE SMOOTH",
"247 67 OFFCURVE",
"256 71 OFFCURVE",
"263 78 CURVE SMOOTH"
);
}
);
vertWidth = 1000;
width = 613;
}
);
note = uni300C;
unicode = 300C;
},
{
glyphname = cornerbracketright;
lastChange = "2017-12-21 08:48:41 +0000";
layers = (
{
layerId = "4BF2BF08-17D9-4819-AFFF-E16C099614A3";
paths = (
{
closed = 1;
nodes = (
"387 -103 OFFCURVE",
"413 -78 OFFCURVE",
"413 -47 CURVE SMOOTH",
"413 617 LINE SMOOTH",
"413 637 OFFCURVE",
"396 653 OFFCURVE",
"376 653 CURVE SMOOTH",
"356 653 OFFCURVE",
"340 637 OFFCURVE",
"340 617 CURVE SMOOTH",
"340 -31 LINE SMOOTH",
"340 -37 OFFCURVE",
"337 -40 OFFCURVE",
"331 -40 CURVE SMOOTH",
"61 -40 LINE SMOOTH",
"44 -40 OFFCURVE",
"30 -55 OFFCURVE",
"30 -72 CURVE SMOOTH",
"30 -89 OFFCURVE",
"44 -103 OFFCURVE",
"61 -103 CURVE SMOOTH",
"356 -103 LINE SMOOTH"
);
}
);
vertWidth = 1000;
width = 613;
}
);
note = uni300D;
unicode = 300D;
},
{
glyphname = dblanglebracketleft;
lastChange = "2017-12-21 08:48:28 +0000";
layers = (
{
layerId = "4BF2BF08-17D9-4819-AFFF-E16C099614A3";
paths = (
{
closed = 1;
nodes = (
"678 797 OFFCURVE",
"667 815 OFFCURVE",
"650 815 CURVE SMOOTH",
"623 815 OFFCURVE",
"604 804 OFFCURVE",
"591 782 CURVE SMOOTH",
"367 409 LINE SMOOTH",
"348 376 OFFCURVE",
"348 344 OFFCURVE",
"367 311 CURVE SMOOTH",
"591 -62 LINE SMOOTH",
"604 -84 OFFCURVE",
"623 -95 OFFCURVE",
"650 -95 CURVE SMOOTH",
"667 -95 OFFCURVE",
"678 -77 OFFCURVE",
"669 -62 CURVE SMOOTH",
"420 353 LINE SMOOTH",
"417 358 OFFCURVE",
"417 362 OFFCURVE",
"420 367 CURVE SMOOTH",
"669 782 LINE SMOOTH"
);
},
{
closed = 1;
nodes = (
"451 -84 OFFCURVE",
"470 -95 OFFCURVE",
"497 -95 CURVE SMOOTH",
"514 -95 OFFCURVE",
"525 -77 OFFCURVE",
"516 -62 CURVE SMOOTH",
"267 353 LINE SMOOTH",
"264 358 OFFCURVE",
"264 362 OFFCURVE",
"267 367 CURVE SMOOTH",
"516 782 LINE SMOOTH",
"525 797 OFFCURVE",
"514 815 OFFCURVE",
"497 815 CURVE SMOOTH",
"470 815 OFFCURVE",
"451 804 OFFCURVE",
"438 782 CURVE SMOOTH",
"214 409 LINE SMOOTH",
"195 376 OFFCURVE",
"195 344 OFFCURVE",
"214 311 CURVE SMOOTH",
"438 -62 LINE SMOOTH"
);
}
);
vertWidth = 1000;
width = 702;
}
);
note = uni300A;
unicode = 300A;
},
{
glyphname = dblanglebracketright;
lastChange = "2017-12-21 08:48:41 +0000";
layers = (
{
layerId = "4BF2BF08-17D9-4819-AFFF-E16C099614A3";
paths = (
{
closed = 1;
nodes = (
"24 -77 OFFCURVE",
"35 -95 OFFCURVE",
"52 -95 CURVE SMOOTH",
"79 -95 OFFCURVE",
"98 -84 OFFCURVE",
"111 -62 CURVE SMOOTH",
"335 311 LINE SMOOTH",
"354 344 OFFCURVE",
"354 376 OFFCURVE",
"335 409 CURVE SMOOTH",
"111 782 LINE SMOOTH",
"98 804 OFFCURVE",
"79 815 OFFCURVE",
"52 815 CURVE SMOOTH",
"35 815 OFFCURVE",
"24 797 OFFCURVE",
"33 782 CURVE SMOOTH",
"282 367 LINE SMOOTH",
"285 362 OFFCURVE",
"285 358 OFFCURVE",
"282 353 CURVE SMOOTH",
"33 -62 LINE SMOOTH"
);
},
{
closed = 1;
nodes = (
"188 815 OFFCURVE",
"177 797 OFFCURVE",
"186 782 CURVE SMOOTH",
"435 367 LINE SMOOTH",
"438 362 OFFCURVE",
"438 358 OFFCURVE",
"435 353 CURVE SMOOTH",
"186 -62 LINE SMOOTH",
"177 -77 OFFCURVE",
"188 -95 OFFCURVE",
"205 -95 CURVE SMOOTH",
"232 -95 OFFCURVE",
"251 -84 OFFCURVE",
"264 -62 CURVE SMOOTH",
"488 311 LINE SMOOTH",
"507 344 OFFCURVE",
"507 376 OFFCURVE",
"488 409 CURVE SMOOTH",
"264 782 LINE SMOOTH",
"251 804 OFFCURVE",
"232 815 OFFCURVE",
"205 815 CURVE SMOOTH"
);
}
);
vertWidth = 1000;
width = 702;
}
);
note = uni300B;
unicode = 300B;
},
{
glyphname = tortoiseshellbracketleft;
lastChange = "2017-12-21 08:48:28 +0000";
layers = (
{
layerId = "4BF2BF08-17D9-4819-AFFF-E16C099614A3";
paths = (
{
closed = 1;
nodes = (
"535 -95 OFFCURVE",
"550 -84 OFFCURVE",
"550 -69 CURVE SMOOTH",
"550 -48 OFFCURVE",
"540 -34 OFFCURVE",
"521 -27 CURVE SMOOTH",
"282 54 LINE",
"277 56 OFFCURVE",
"274 60 OFFCURVE",
"274 65 CURVE SMOOTH",
"274 655 LINE SMOOTH",
"274 660 OFFCURVE",
"277 664 OFFCURVE",
"282 666 CURVE",
"521 747 LINE SMOOTH",
"540 754 OFFCURVE",
"550 768 OFFCURVE",
"550 789 CURVE SMOOTH",
"550 804 OFFCURVE",
"535 815 OFFCURVE",
"520 810 CURVE SMOOTH",
"254 721 LINE SMOOTH",
"222 710 OFFCURVE",
"200 680 OFFCURVE",
"200 647 CURVE SMOOTH",
"200 73 LINE SMOOTH",
"200 40 OFFCURVE",
"222 10 OFFCURVE",
"254 -1 CURVE SMOOTH",
"520 -90 LINE SMOOTH"
);
}
);
vertWidth = 1000;
width = 580;
}
);
note = uni3014;
unicode = 3014;
},
{
glyphname = tortoiseshellbracketright;
lastChange = "2017-12-21 08:48:41 +0000";
layers = (
{
layerId = "4BF2BF08-17D9-4819-AFFF-E16C099614A3";
paths = (
{
closed = 1;
nodes = (
"40 -34 OFFCURVE",
"30 -48 OFFCURVE",
"30 -69 CURVE SMOOTH",
"30 -84 OFFCURVE",
"44 -95 OFFCURVE",
"59 -90 CURVE SMOOTH",
"326 -1 LINE SMOOTH",
"358 10 OFFCURVE",
"380 40 OFFCURVE",
"380 73 CURVE SMOOTH",
"380 647 LINE SMOOTH",
"380 680 OFFCURVE",
"358 710 OFFCURVE",
"326 721 CURVE SMOOTH",
"59 810 LINE SMOOTH",
"44 815 OFFCURVE",
"30 804 OFFCURVE",
"30 789 CURVE SMOOTH",
"30 768 OFFCURVE",
"40 754 OFFCURVE",
"59 747 CURVE SMOOTH",
"298 666 LINE",
"303 664 OFFCURVE",
"306 660 OFFCURVE",
"306 655 CURVE SMOOTH",
"306 65 LINE SMOOTH",
"306 60 OFFCURVE",
"303 56 OFFCURVE",
"298 54 CURVE",
"59 -27 LINE SMOOTH"
);
}
);
vertWidth = 1000;
width = 580;
}
);
note = uni3015;
unicode = 3015;
},
{
glyphname = whitecornerbracketleft;
lastChange = "2017-12-21 08:48:28 +0000";
layers = (
{
layerId = "4BF2BF08-17D9-4819-AFFF-E16C099614A3";
paths = (
{
closed = 1;
nodes = (
"247 774 OFFCURVE",
"250 777 OFFCURVE",
"256 777 CURVE SMOOTH",
"565 777 LINE SMOOTH",
"571 777 OFFCURVE",
"574 774 OFFCURVE",
"574 768 CURVE SMOOTH",
"574 712 LINE SMOOTH",
"574 706 OFFCURVE",
"571 703 OFFCURVE",
"565 703 CURVE SMOOTH",
"377 703 LINE SMOOTH",
"346 703 OFFCURVE",
"320 678 OFFCURVE",
"320 647 CURVE SMOOTH",
"320 85 LINE SMOOTH",
"320 80 OFFCURVE",
"317 77 OFFCURVE",
"312 77 CURVE SMOOTH",
"256 77 LINE SMOOTH",
"250 77 OFFCURVE",
"247 80 OFFCURVE",
"247 85 CURVE SMOOTH",
"247 768 LINE SMOOTH"
);
},
{
closed = 1;
nodes = (
"341 30 OFFCURVE",
"367 56 OFFCURVE",
"367 87 CURVE SMOOTH",
"367 648 LINE SMOOTH",
"367 654 OFFCURVE",
"370 657 OFFCURVE",
"376 657 CURVE SMOOTH",
"564 657 LINE SMOOTH",
"595 657 OFFCURVE",
"620 682 OFFCURVE",
"620 713 CURVE SMOOTH",
"620 767 LINE SMOOTH",
"620 798 OFFCURVE",
"595 823 OFFCURVE",
"564 823 CURVE SMOOTH",
"257 823 LINE SMOOTH",
"226 823 OFFCURVE",
"200 798 OFFCURVE",
"200 767 CURVE SMOOTH",
"200 87 LINE SMOOTH",
"200 56 OFFCURVE",
"226 30 OFFCURVE",
"257 30 CURVE SMOOTH",
"310 30 LINE SMOOTH"
);
}
);
vertWidth = 1000;
width = 650;
}
);
note = uni300E;
unicode = 300E;
},
{
glyphname = whitecornerbracketright;
lastChange = "2017-12-21 08:48:41 +0000";
layers = (
{
layerId = "4BF2BF08-17D9-4819-AFFF-E16C099614A3";
paths = (
{
closed = 1;
nodes = (
"76 14 OFFCURVE",
"79 17 OFFCURVE",
"85 17 CURVE SMOOTH",
"273 17 LINE SMOOTH",
"304 17 OFFCURVE",
"330 42 OFFCURVE",
"330 73 CURVE SMOOTH",
"330 635 LINE SMOOTH",
"330 640 OFFCURVE",
"333 643 OFFCURVE",
"338 643 CURVE SMOOTH",
"395 643 LINE SMOOTH",
"400 643 OFFCURVE",
"403 640 OFFCURVE",
"403 635 CURVE SMOOTH",
"403 -48 LINE SMOOTH",
"403 -54 OFFCURVE",
"400 -57 OFFCURVE",
"395 -57 CURVE SMOOTH",
"85 -57 LINE SMOOTH",
"79 -57 OFFCURVE",
"76 -54 OFFCURVE",
"76 -48 CURVE SMOOTH",
"76 8 LINE SMOOTH"
);
},
{
closed = 1;
nodes = (
"424 -103 OFFCURVE",
"450 -78 OFFCURVE",
"450 -47 CURVE SMOOTH",
"450 633 LINE SMOOTH",
"450 664 OFFCURVE",
"424 690 OFFCURVE",
"393 690 CURVE SMOOTH",
"340 690 LINE SMOOTH",
"309 690 OFFCURVE",
"283 664 OFFCURVE",
"283 633 CURVE SMOOTH",
"283 72 LINE SMOOTH",
"283 66 OFFCURVE",
"280 63 OFFCURVE",
"274 63 CURVE SMOOTH",
"86 63 LINE SMOOTH",
"55 63 OFFCURVE",
"30 38 OFFCURVE",
"30 7 CURVE SMOOTH",
"30 -47 LINE SMOOTH",
"30 -78 OFFCURVE",
"55 -103 OFFCURVE",
"86 -103 CURVE SMOOTH",
"393 -103 LINE SMOOTH"
);
}
);
vertWidth = 1000;
width = 650;
}
);
note = uni300F;
unicode = 300F;
},
{
glyphname = whitelenticularbracketleft;
lastChange = "2017-12-21 08:48:28 +0000";
layers = (
{
layerId = "4BF2BF08-17D9-4819-AFFF-E16C099614A3";
paths = (
{
closed = 1;
nodes = (
"247 765 OFFCURVE",
"250 768 OFFCURVE",
"256 768 CURVE SMOOTH",
"439 768 LINE SMOOTH",
"444 768 OFFCURVE",
"445 766 OFFCURVE",
"442 762 CURVE SMOOTH",
"357 644 OFFCURVE",
"314 510 OFFCURVE",
"314 360 CURVE SMOOTH",
"314 210 OFFCURVE",
"357 76 OFFCURVE",
"442 -42 CURVE SMOOTH",
"445 -46 OFFCURVE",
"444 -48 OFFCURVE",
"439 -48 CURVE SMOOTH",
"256 -48 LINE SMOOTH",
"250 -48 OFFCURVE",
"247 -45 OFFCURVE",
"247 -40 CURVE SMOOTH",
"247 760 LINE SMOOTH"
);
},
{
closed = 1;
nodes = (
"505 -95 OFFCURVE",
"518 -70 OFFCURVE",
"503 -53 CURVE",
"412 62 OFFCURVE",
"360 211 OFFCURVE",
"360 360 CURVE SMOOTH",
"360 509 OFFCURVE",
"412 658 OFFCURVE",
"503 773 CURVE",
"518 790 OFFCURVE",
"505 815 OFFCURVE",
"484 815 CURVE SMOOTH",
"257 815 LINE SMOOTH",
"226 815 OFFCURVE",
"200 789 OFFCURVE",
"200 758 CURVE SMOOTH",
"200 -38 LINE SMOOTH",
"200 -69 OFFCURVE",
"226 -95 OFFCURVE",
"257 -95 CURVE SMOOTH",
"484 -95 LINE SMOOTH"
);
}
);
vertWidth = 1000;
width = 539;
}
);
note = uni3016;
unicode = 3016;
},
{
glyphname = whitelenticularbracketright;
lastChange = "2017-12-21 08:48:41 +0000";
layers = (
{
layerId = "4BF2BF08-17D9-4819-AFFF-E16C099614A3";
paths = (
{
closed = 1;
nodes = (
"182 76 OFFCURVE",
"225 210 OFFCURVE",
"225 360 CURVE SMOOTH",
"225 510 OFFCURVE",
"182 644 OFFCURVE",
"97 762 CURVE SMOOTH",
"94 766 OFFCURVE",
"95 768 OFFCURVE",
"100 768 CURVE SMOOTH",
"284 768 LINE SMOOTH",
"289 768 OFFCURVE",
"292 765 OFFCURVE",
"292 760 CURVE SMOOTH",
"292 -40 LINE SMOOTH",
"292 -45 OFFCURVE",
"289 -48 OFFCURVE",
"284 -48 CURVE SMOOTH",
"100 -48 LINE SMOOTH",
"95 -48 OFFCURVE",
"94 -46 OFFCURVE",
"97 -42 CURVE SMOOTH"
);
},
{
closed = 1;
nodes = (
"313 -95 OFFCURVE",
"339 -69 OFFCURVE",
"339 -38 CURVE SMOOTH",
"339 758 LINE SMOOTH",
"339 789 OFFCURVE",
"313 815 OFFCURVE",
"282 815 CURVE SMOOTH",
"55 815 LINE SMOOTH",
"34 815 OFFCURVE",
"21 790 OFFCURVE",
"36 773 CURVE",
"127 658 OFFCURVE",
"179 509 OFFCURVE",
"179 360 CURVE SMOOTH",
"179 211 OFFCURVE",
"127 62 OFFCURVE",
"36 -53 CURVE",
"21 -70 OFFCURVE",
"34 -95 OFFCURVE",
"55 -95 CURVE SMOOTH",
"282 -95 LINE SMOOTH"
);
}
);
vertWidth = 1000;
width = 539;
}
);
note = uni3017;
unicode = 3017;
},
{
glyphname = bracketleft.full;
lastChange = "2017-12-21 08:48:28 +0000";
layers = (
{
layerId = "4BF2BF08-17D9-4819-AFFF-E16C099614A3";
paths = (
{
closed = 1;
nodes = (
"537 -95 OFFCURVE",
"550 -82 OFFCURVE",
"550 -65 CURVE SMOOTH",
"550 -48 OFFCURVE",
"537 -35 OFFCURVE",
"520 -35 CURVE SMOOTH",
"282 -35 LINE SMOOTH",
"277 -35 OFFCURVE",
"274 -32 OFFCURVE",
"274 -26 CURVE SMOOTH",
"274 746 LINE SMOOTH",
"274 752 OFFCURVE",
"277 755 OFFCURVE",
"282 755 CURVE SMOOTH",
"520 755 LINE SMOOTH",
"537 755 OFFCURVE",
"550 768 OFFCURVE",
"550 785 CURVE SMOOTH",
"550 802 OFFCURVE",
"537 815 OFFCURVE",
"520 815 CURVE SMOOTH",
"257 815 LINE SMOOTH",
"226 815 OFFCURVE",
"200 789 OFFCURVE",
"200 758 CURVE SMOOTH",
"200 -38 LINE SMOOTH",
"200 -69 OFFCURVE",
"226 -95 OFFCURVE",
"257 -95 CURVE SMOOTH",
"520 -95 LINE SMOOTH"
);
}
);
vertWidth = 1000;
width = 580;
}
);
note = uniFF3B;
unicode = FF3B;
},
{
glyphname = bracketright.full;
lastChange = "2017-12-21 08:48:41 +0000";
layers = (
{
layerId = "4BF2BF08-17D9-4819-AFFF-E16C099614A3";
paths = (
{
closed = 1;
nodes = (
"43 -35 OFFCURVE",
"30 -48 OFFCURVE",
"30 -65 CURVE SMOOTH",
"30 -82 OFFCURVE",
"43 -95 OFFCURVE",
"60 -95 CURVE SMOOTH",
"323 -95 LINE SMOOTH",
"354 -95 OFFCURVE",
"380 -69 OFFCURVE",
"380 -38 CURVE SMOOTH",
"380 758 LINE SMOOTH",
"380 789 OFFCURVE",
"354 815 OFFCURVE",
"323 815 CURVE SMOOTH",
"60 815 LINE SMOOTH",
"43 815 OFFCURVE",
"30 802 OFFCURVE",
"30 785 CURVE SMOOTH",
"30 768 OFFCURVE",
"43 755 OFFCURVE",
"60 755 CURVE SMOOTH",
"298 755 LINE SMOOTH",
"303 755 OFFCURVE",
"306 752 OFFCURVE",
"306 746 CURVE SMOOTH",
"306 -27 LINE SMOOTH",
"306 -32 OFFCURVE",
"303 -35 OFFCURVE",
"298 -35 CURVE SMOOTH",
"60 -35 LINE SMOOTH"
);
}
);
vertWidth = 1000;
width = 580;
}
);
note = uniFF3D;
unicode = FF3D;
},
{
glyphname = parenleft.full;
lastChange = "2017-12-21 08:48:28 +0000";
layers = (
{
layerId = "4BF2BF08-17D9-4819-AFFF-E16C099614A3";
paths = (
{
closed = 1;
nodes = (
"404 -87 OFFCURVE",
"427 -95 OFFCURVE",
"454 -95 CURVE SMOOTH",
"466 -95 OFFCURVE",
"473 -77 OFFCURVE",
"464 -69 CURVE SMOOTH",
"339 49 OFFCURVE",
"276 192 OFFCURVE",
"276 360 CURVE SMOOTH",
"276 528 OFFCURVE",
"339 671 OFFCURVE",
"464 789 CURVE SMOOTH",
"473 798 OFFCURVE",
"467 815 OFFCURVE",
"454 815 CURVE SMOOTH",
"427 815 OFFCURVE",
"404 807 OFFCURVE",
"387 790 CURVE SMOOTH",
"262 673 OFFCURVE",
"200 530 OFFCURVE",
"200 360 CURVE SMOOTH",
"200 190 OFFCURVE",
"262 47 OFFCURVE",
"387 -70 CURVE SMOOTH"
);
}
);
vertWidth = 1000;
width = 498;
}
);
note = uniFF08;
unicode = FF08;
},
{
glyphname = parenright.full;
lastChange = "2017-12-21 08:48:41 +0000";
layers = (
{
layerId = "4BF2BF08-17D9-4819-AFFF-E16C099614A3";
paths = (
{
closed = 1;
nodes = (
"25 -78 OFFCURVE",
"31 -95 OFFCURVE",
"44 -95 CURVE SMOOTH",
"71 -95 OFFCURVE",
"94 -87 OFFCURVE",
"111 -70 CURVE SMOOTH",
"236 47 OFFCURVE",
"298 190 OFFCURVE",
"298 360 CURVE SMOOTH",
"298 530 OFFCURVE",
"236 673 OFFCURVE",
"111 790 CURVE SMOOTH",
"94 807 OFFCURVE",
"71 815 OFFCURVE",
"44 815 CURVE SMOOTH",
"32 815 OFFCURVE",
"25 797 OFFCURVE",
"34 789 CURVE SMOOTH",
"159 671 OFFCURVE",
"222 528 OFFCURVE",
"222 360 CURVE SMOOTH",
"222 192 OFFCURVE",
"159 49 OFFCURVE",
"34 -69 CURVE SMOOTH"
);
}
